<svg xmlns="http://www.w3.org/2000/svg" width="9" height="9" viewBox="0 0 9 9">
  <path id="Shape" d="M.6,9a.6.6,0,0,1-.423-.172A.578.578,0,0,1,.176,8L3.335,4.5.176,1a.578.578,0,0,1,0-.83.608.608,0,0,1,.848,0L4.55,4.078a.577.577,0,0,1,.174.423.571.571,0,0,1-.174.422L1.022,8.828A.6.6,0,0,1,.6,9ZM4.875,9a.6.6,0,0,1-.423-.171.578.578,0,0,1,0-.83L7.61,4.5,4.451,1a.578.578,0,0,1,0-.83.607.607,0,0,1,.847,0L8.826,4.077a.6.6,0,0,1,0,.845L5.3,8.827A.6.6,0,0,1,4.875,9Z" transform="translate(0 0)" fill="#ff8c00"/>
</svg>
