<svg xmlns="http://www.w3.org/2000/svg" width="14.286" height="10.715" viewBox="0 0 14.286 10.715">
  <path id="_2_Picture" data-name="2 Picture" d="M12.8,10.715H1.488A1.49,1.49,0,0,1,0,9.226V1.488A1.49,1.49,0,0,1,1.488,0H12.8a1.488,1.488,0,0,1,1.488,1.488V9.226A1.488,1.488,0,0,1,12.8,10.715ZM5.952,4.389a.593.593,0,0,0-.408.162L1.973,7.9a.6.6,0,0,0,.408,1.03h9.574a.6.6,0,0,0,.423-1L11.134,6.682a.595.595,0,0,0-.839,0l-.408.408a.6.6,0,0,1-.827,0L6.36,4.551A.594.594,0,0,0,5.952,4.389Zm5.357-2.6A1.19,1.19,0,1,0,12.5,2.976,1.192,1.192,0,0,0,11.31,1.786Z" fill="#fff"/>
</svg>
