<svg xmlns="http://www.w3.org/2000/svg" width="17.961" height="18.162" viewBox="0 0 17.961 18.162">
  <g id="Iconly_Light_Edit_Square" data-name="Iconly/Light/Edit Square" transform="translate(-2 -1.829)">
    <g id="Edit_Square" data-name="Edit Square" transform="translate(2.75 2.75)">
      <path id="Stroke_1" data-name="Stroke 1" d="M7.64,0H4.372C1.685,0,0,1.9,0,4.6v7.266c0,2.693,1.677,4.6,4.372,4.6h7.711c2.7,0,4.373-1.9,4.373-4.6V8.341" transform="translate(0 0.034)" fill="none" stroke="#fff" stroke-linecap="round" stroke-linejoin="round" stroke-miterlimit="10" stroke-width="1.5"/>
      <path id="Stroke_3" data-name="Stroke 3" d="M.637,7.14,7.168.61a2.084,2.084,0,0,1,2.946,0l1.064,1.064a2.083,2.083,0,0,1,0,2.946L4.615,11.181a1.9,1.9,0,0,1-1.341.556H0l.082-3.3A1.9,1.9,0,0,1,.637,7.14Z" transform="translate(4.674 0)" fill="none" stroke="#fff" stroke-linecap="round" stroke-linejoin="round" stroke-miterlimit="10" stroke-width="1.5"/>
      <path id="Stroke_5" data-name="Stroke 5" d="M0,0,3.99,3.99" transform="translate(10.849 1.619)" fill="none" stroke="#fff" stroke-linecap="round" stroke-linejoin="round" stroke-miterlimit="10" stroke-width="1.5"/>
    </g>
  </g>
</svg>
