<svg xmlns="http://www.w3.org/2000/svg" width="19.641" height="20.71" viewBox="0 0 19.641 20.71">
  <g id="Iconly_Light_Home" data-name="Iconly/Light/Home" transform="translate(-1.75 -1.136)">
    <g id="Home" transform="translate(2.5 2)">
      <path id="Home-2" data-name="Home" d="M6.356,17.923V14.995A1.362,1.362,0,0,1,7.716,13.64h2.756a1.362,1.362,0,0,1,1.369,1.355h0v2.937A1.17,1.17,0,0,0,12.988,19.1h1.837a3.3,3.3,0,0,0,3.316-3.283h0V7.484a2.329,2.329,0,0,0-.919-1.819L10.94.654a3.037,3.037,0,0,0-3.766,0L.919,5.674A2.311,2.311,0,0,0,0,7.493v8.321A3.3,3.3,0,0,0,3.316,19.1H5.153a1.179,1.179,0,0,0,1.185-1.173h0" fill="none" stroke="#1a1818" stroke-linecap="round" stroke-linejoin="round" stroke-miterlimit="10" stroke-width="1.5"/>
    </g>
  </g>
</svg>
