<svg xmlns="http://www.w3.org/2000/svg" width="17.7" height="18.76" viewBox="0 0 17.7 18.76">
  <g id="Iconly_Light_Setting" data-name="Iconly/Light/Setting" transform="translate(0.869 0.75)">
    <g id="Setting">
      <path id="Path_33946" d="M15.739,4.8l-.559-.97A1.718,1.718,0,0,0,12.838,3.2h0A1.71,1.71,0,0,1,10.5,2.589a1.644,1.644,0,0,1-.23-.822h0A1.718,1.718,0,0,0,8.547,0H7.421a1.71,1.71,0,0,0-1.71,1.718h0A1.718,1.718,0,0,1,3.994,3.411a1.644,1.644,0,0,1-.822-.23h0A1.718,1.718,0,0,0,.83,3.814L.23,4.8A1.718,1.718,0,0,0,.854,7.142h0A1.718,1.718,0,0,1,1.713,8.63a1.718,1.718,0,0,1-.859,1.488h0A1.71,1.71,0,0,0,.23,12.452h0L.8,13.43a1.718,1.718,0,0,0,2.342.666h0a1.7,1.7,0,0,1,2.334.625,1.644,1.644,0,0,1,.23.822h0A1.718,1.718,0,0,0,7.421,17.26H8.547a1.718,1.718,0,0,0,1.718-1.71h0a1.71,1.71,0,0,1,1.718-1.718,1.751,1.751,0,0,1,.822.23h0a1.718,1.718,0,0,0,2.342-.625h0l.592-.986a1.71,1.71,0,0,0-.625-2.342h0a1.71,1.71,0,0,1-.625-2.342,1.685,1.685,0,0,1,.625-.625h0a1.718,1.718,0,0,0,.625-2.334h0Z" transform="translate(0 0)" fill="none" stroke="#fff" stroke-linecap="round" stroke-linejoin="round" stroke-miterlimit="10" stroke-width="1.5"/>
      <circle id="Ellipse_737" cx="2.367" cy="2.367" r="2.367" transform="translate(5.621 6.263)" fill="none" stroke="#fff" stroke-linecap="round" stroke-linejoin="round" stroke-miterlimit="10" stroke-width="1.5"/>
    </g>
  </g>
</svg>
