<svg id="Page_1" data-name="Page 1" xmlns="http://www.w3.org/2000/svg" xmlns:xlink="http://www.w3.org/1999/xlink" width="18" height="18" viewBox="0 0 18 18">
  <defs>
    <clipPath id="clip-path">
      <path id="Clip_4" data-name="Clip 4" d="M0,18H18V0H0Z" fill="none"/>
    </clipPath>
  </defs>
  <path id="Fill_1" data-name="Fill 1" d="M15.89,18H2.11A2.112,2.112,0,0,1,0,15.89V3.515a2.112,2.112,0,0,1,2.11-2.11h.843V0H4.36V1.406H13.64V0h1.407V1.406h.843A2.112,2.112,0,0,1,18,3.515V15.89A2.112,2.112,0,0,1,15.89,18ZM1.406,6.61V15.89a.7.7,0,0,0,.7.7H15.89a.7.7,0,0,0,.7-.7V6.61Zm.7-3.8a.7.7,0,0,0-.7.7V5.2H16.593V3.515a.7.7,0,0,0-.7-.7h-.843V4.218H13.64V2.813H4.36V4.218H2.953V2.813Z" fill="#9e9e9e"/>
  <path id="Clip_4-2" data-name="Clip 4" d="M0,18H18V0H0Z" fill="none"/>
  <g id="Page_1-2" data-name="Page 1" clip-path="url(#clip-path)">
    <path id="Fill_3" data-name="Fill 3" d="M0,1.406H1.406V0H0Z" transform="translate(2.672 8.086)" fill="#9e9e9e"/>
    <path id="Fill_5" data-name="Fill 5" d="M0,1.406H1.406V0H0Z" transform="translate(5.484 8.086)" fill="#9e9e9e"/>
    <path id="Fill_6" data-name="Fill 6" d="M0,1.406H1.406V0H0Z" transform="translate(8.297 8.086)" fill="#9e9e9e"/>
    <path id="Fill_7" data-name="Fill 7" d="M0,1.406H1.406V0H0Z" transform="translate(11.109 8.086)" fill="#9e9e9e"/>
    <path id="Fill_8" data-name="Fill 8" d="M0,1.406H1.406V0H0Z" transform="translate(13.922 8.086)" fill="#9e9e9e"/>
    <path id="Fill_9" data-name="Fill 9" d="M0,1.406H1.406V0H0Z" transform="translate(2.672 10.898)" fill="#9e9e9e"/>
    <path id="Fill_10" data-name="Fill 10" d="M0,1.406H1.406V0H0Z" transform="translate(5.484 10.898)" fill="#9e9e9e"/>
    <path id="Fill_11" data-name="Fill 11" d="M0,1.406H1.406V0H0Z" transform="translate(8.297 10.898)" fill="#9e9e9e"/>
    <path id="Fill_12" data-name="Fill 12" d="M0,1.406H1.406V0H0Z" transform="translate(11.109 10.898)" fill="#9e9e9e"/>
    <path id="Fill_13" data-name="Fill 13" d="M0,1.406H1.406V0H0Z" transform="translate(2.672 13.711)" fill="#9e9e9e"/>
    <path id="Fill_14" data-name="Fill 14" d="M0,1.406H1.406V0H0Z" transform="translate(5.484 13.711)" fill="#9e9e9e"/>
    <path id="Fill_15" data-name="Fill 15" d="M0,1.406H1.406V0H0Z" transform="translate(8.297 13.711)" fill="#9e9e9e"/>
    <path id="Fill_16" data-name="Fill 16" d="M0,1.406H1.406V0H0Z" transform="translate(11.109 13.711)" fill="#9e9e9e"/>
    <path id="Fill_17" data-name="Fill 17" d="M0,1.406H1.406V0H0Z" transform="translate(13.922 10.898)" fill="#9e9e9e"/>
  </g>
</svg>
