<svg xmlns="http://www.w3.org/2000/svg" width="11.986" height="11.411" viewBox="0 0 11.986 11.411">
  <g id="Group_17" data-name="Group 17" transform="translate(0 -0.035)">
    <path id="Page_1" data-name="Page 1" d="M.823.14a.486.486,0,0,0-.682,0,.474.474,0,0,0,0,.675l5.51,5.456a.486.486,0,0,0,.683,0L11.845.815a.474.474,0,0,0,0-.675.486.486,0,0,0-.682,0L5.993,5.116Z" transform="translate(0 5.035)" fill="#231f20"/>
    <path id="Page_1-2" data-name="Page 1" d="M.823.14a.486.486,0,0,0-.682,0,.474.474,0,0,0,0,.675l5.51,5.456a.486.486,0,0,0,.683,0L11.845.815a.474.474,0,0,0,0-.675.486.486,0,0,0-.682,0L5.993,5.116Z" transform="translate(0 0.035)" fill="#9e9e9e"/>
  </g>
</svg>
