<svg id="Page_1" data-name="Page 1" xmlns="http://www.w3.org/2000/svg" width="20" height="20.001" viewBox="0 0 20 20.001">
  <path id="Fill_1" data-name="Fill 1" d="M2.344,4.687A2.344,2.344,0,1,1,4.687,2.344,2.346,2.346,0,0,1,2.344,4.687Zm0-3.515A1.172,1.172,0,1,0,3.515,2.344,1.173,1.173,0,0,0,2.344,1.172Z" transform="translate(14.141 10.625)" fill="#9e9e9e" opacity="0.9"/>
  <path id="Fill_3" data-name="Fill 3" d="M7.031,15.235H0V14.063a3.514,3.514,0,0,1,5.787-2.681L9.414,8.506V4.687H6.484V3.515a3.535,3.535,0,0,1,7.07,0V4.687H10.586V8.506l3.628,2.875A3.513,3.513,0,0,1,20,14.063v1.171H12.969V14.063a3.511,3.511,0,0,1,.488-1.786L10,9.536l-3.457,2.74a3.512,3.512,0,0,1,.488,1.786v1.172Zm9.454-3.516a2.346,2.346,0,0,0-2.344,2.344h4.687a2.347,2.347,0,0,0-2.344-2.344Zm-12.969,0a2.346,2.346,0,0,0-2.344,2.344H5.859a2.347,2.347,0,0,0-2.344-2.344ZM10,1.172A2.346,2.346,0,0,0,7.656,3.515h4.727a2.312,2.312,0,0,0-.7-1.656A2.386,2.386,0,0,0,10,1.172Z" transform="translate(0 4.766)" fill="#9e9e9e"/>
  <path id="Fill_5" data-name="Fill 5" d="M2.344,4.687A2.344,2.344,0,1,1,4.687,2.344,2.346,2.346,0,0,1,2.344,4.687Zm0-3.515A1.172,1.172,0,1,0,3.515,2.344,1.173,1.173,0,0,0,2.344,1.172Z" transform="translate(1.172 10.625)" fill="#9e9e9e" opacity="0.9"/>
  <path id="Fill_7" data-name="Fill 7" d="M2.344,4.766A2.366,2.366,0,0,1,0,2.383,2.366,2.366,0,0,1,2.344,0,2.415,2.415,0,0,1,4.727,2.383,2.415,2.415,0,0,1,2.344,4.766Zm0-3.594a1.212,1.212,0,0,0,0,2.422A1.243,1.243,0,0,0,3.555,2.383,1.243,1.243,0,0,0,2.344,1.172Z" transform="translate(7.656)" fill="#9e9e9e" opacity="0.9"/>
</svg>
