<svg xmlns="http://www.w3.org/2000/svg" xmlns:xlink="http://www.w3.org/1999/xlink" width="19.908" height="19.908" viewBox="0 0 19.908 19.908">
  <defs>
    <clipPath id="clip-path">
      <path id="Clip_2" data-name="Clip 2" d="M0,0H19.908V19.908H0Z" transform="translate(0 0)" fill="none"/>
    </clipPath>
  </defs>
  <g id="Page_1" data-name="Page 1" transform="translate(0 0)">
    <path id="Clip_2-2" data-name="Clip 2" d="M0,0H19.908V19.908H0Z" transform="translate(0 0)" fill="none"/>
    <g id="Page_1-2" data-name="Page 1" clip-path="url(#clip-path)">
      <path id="Fill_1" data-name="Fill 1" d="M9.942,19.909a10.013,10.013,0,0,1-1.147-.067.552.552,0,0,1-.488-.581A2.209,2.209,0,0,0,6.96,17.1a2.06,2.06,0,0,0-.8-.156,2.284,2.284,0,0,0-1.678.714.553.553,0,0,1-.758.06,9.863,9.863,0,0,1-1.574-1.593.554.554,0,0,1,.06-.75,2.215,2.215,0,0,0,.556-2.462A2.192,2.192,0,0,0,.768,11.549H.715a.663.663,0,0,1-.653-.49,10.014,10.014,0,0,1,0-2.264.539.539,0,0,1,.554-.49H.642A2.3,2.3,0,0,0,2.807,6.962a2.2,2.2,0,0,0-.556-2.483.555.555,0,0,1-.059-.757A9.9,9.9,0,0,1,3.8,2.129a.556.556,0,0,1,.752.063,2.29,2.29,0,0,0,1.679.71,2.067,2.067,0,0,0,.785-.148A2.217,2.217,0,0,0,8.381.63.557.557,0,0,1,8.873.06a9.909,9.909,0,0,1,2.239.006A.551.551,0,0,1,11.6.648a2.211,2.211,0,0,0,1.345,2.161,2.077,2.077,0,0,0,.8.155,2.28,2.28,0,0,0,1.678-.714.554.554,0,0,1,.756-.061,9.818,9.818,0,0,1,1.577,1.593.554.554,0,0,1-.06.751,2.2,2.2,0,0,0,1.5,3.826.652.652,0,0,1,.64.49,9.916,9.916,0,0,1,0,2.264.557.557,0,0,1-.541.49l-.042,0-.122,0a2.23,2.23,0,0,0-2.037,1.35,2.2,2.2,0,0,0,.558,2.483.552.552,0,0,1,.059.756,9.9,9.9,0,0,1-1.61,1.592.556.556,0,0,1-.752-.063,2.291,2.291,0,0,0-1.676-.709,2.074,2.074,0,0,0-.789.15,2.211,2.211,0,0,0-1.363,2.122.551.551,0,0,1-.492.571A9.935,9.935,0,0,1,9.942,19.909ZM9.969,6.656a3.32,3.32,0,1,0,3.321,3.32A3.323,3.323,0,0,0,9.969,6.656Z" transform="translate(0 0)" fill="#231f20"/>
    </g>
  </g>
</svg>
